<svg xmlns="http://www.w3.org/2000/svg" height="48" viewBox="0 96 960 960" width="48"><path fill="#C4C8D8" d="M480 995q-87.36 0-162.68-32.5Q242 930 184 872.5T93.5 739.838Q61 664.675 61 576.479 61 489 93.5 413.5 126 338 184 280t133.32-90.5Q392.64 157 480 157q88 0 163.5 32.5t133 90.5q57.5 58 90 133.684T899 576.411V627q0 63-43 103t-107 40q-40.898 0-73.449-19.5Q643 731 626 698q-25 37-62 54.5T480 770q-80.905 0-137.953-56.656Q285 656.687 285 575.034q0-81.654 56.977-138.344T479.76 380q80.86 0 138.05 56.69Q675 493.38 675 576v43.933q0 30.967 21.8 51.017Q718.6 691 749 691q28 0 49-20.05t21-51.017V576q0-142.362-98.319-240.681Q622.362 237 479.5 237q-140.862 0-239.681 98.819Q141 434.638 141 576q0 142.362 98.41 240.681Q337.819 915 480.078 915H694v80H480Zm.353-304q48.23 0 81.939-33.355Q596 624.289 596 576.353t-34.061-82.645Q527.877 459 479.647 459q-48.23 0-81.939 34.826Q364 528.652 364 576.588q0 47.937 34.061 81.174Q432.123 691 480.353 691Z"/></svg>